<?xml version="1.0" encoding="UTF-8" standalone="no"?><!DOCTYPE svg PUBLIC "-//W3C//DTD SVG 1.1//EN" "http://www.w3.org/Graphics/SVG/1.1/DTD/svg11.dtd"><!-- Generated by graphviz version 2.40.1 (20161225.0304)
 --><!-- Title: G Pages: 1 --><svg xmlns="http://www.w3.org/2000/svg" xmlns:xlink="http://www.w3.org/1999/xlink" width="133pt" height="310pt" viewBox="0.00 0.00 133.00 310.40">
<g id="graph0" class="graph" transform="scale(1 1) rotate(0) translate(4 306.4)">
<title>G</title>
<polygon fill="#ffffff" stroke="transparent" points="-4,4 -4,-306.4 129,-306.4 129,4 -4,4"/>
<!-- 0 -->
<g id="node1" class="node">
<title>0</title>
<ellipse fill="none" stroke="#000000" cx="90" cy="-284.4" rx="27" ry="18"/>
<text text-anchor="middle" x="90" y="-280.2" font-family="Times,serif" font-size="14.00" fill="#000000">0</text>
</g>
<!-- 1 -->
<g id="node2" class="node">
<title>1</title>
<ellipse fill="none" stroke="#000000" cx="27" cy="-195.6" rx="27" ry="18"/>
<text text-anchor="middle" x="27" y="-191.4" font-family="Times,serif" font-size="14.00" fill="#000000">1</text>
</g>
<!-- 0&#45;&#45;1 -->
<g id="edge1" class="edge">
<title>0--1</title>
<path fill="none" stroke="#000000" d="M78.4448,-268.1127C67.1486,-252.1905 50.0392,-228.0743 38.6953,-212.0848"/>
<text text-anchor="middle" x="68.5" y="-235.8" font-family="Times,serif" font-size="14.00" fill="#000000">8</text>
</g>
<!-- 2 -->
<g id="node3" class="node">
<title>2</title>
<ellipse fill="none" stroke="#000000" cx="70" cy="-106.8" rx="27" ry="18"/>
<text text-anchor="middle" x="70" y="-102.6" font-family="Times,serif" font-size="14.00" fill="#000000">2</text>
</g>
<!-- 0&#45;&#45;2 -->
<g id="edge2" class="edge">
<title>0--2</title>
<path fill="none" stroke="#000000" d="M87.9722,-266.3934C84.1389,-232.3537 75.8706,-158.9307 72.0331,-124.8543"/>
<text text-anchor="middle" x="84.5" y="-191.4" font-family="Times,serif" font-size="14.00" fill="#000000">9</text>
</g>
<!-- 3 -->
<g id="node4" class="node">
<title>3</title>
<ellipse fill="none" stroke="#000000" cx="98" cy="-18" rx="27" ry="18"/>
<text text-anchor="middle" x="98" y="-13.8" font-family="Times,serif" font-size="14.00" fill="#000000">3</text>
</g>
<!-- 0&#45;&#45;3 -->
<g id="edge3" class="edge">
<title>0--3</title>
<path fill="none" stroke="#000000" d="M94.5355,-266.5545C95.846,-260.7944 97.1503,-254.358 98,-248.4 108.0268,-178.089 109.9935,-159.71 106,-88.8 104.9845,-70.7685 102.5253,-50.2761 100.5993,-35.9945"/>
<text text-anchor="middle" x="110.5" y="-147" font-family="Times,serif" font-size="14.00" fill="#000000">5</text>
</g>
<!-- 1&#45;&#45;2 -->
<g id="edge4" class="edge">
<title>1--2</title>
<path fill="none" stroke="#000000" d="M35.4954,-178.056C43.0829,-162.387 54.1315,-139.5703 61.6685,-124.0054"/>
<text text-anchor="middle" x="56.5" y="-147" font-family="Times,serif" font-size="14.00" fill="#000000">7</text>
</g>
<!-- 2&#45;&#45;3 -->
<g id="edge5" class="edge">
<title>2--3</title>
<path fill="none" stroke="#000000" d="M75.6662,-88.83C80.5561,-73.3222 87.5785,-51.0511 92.4378,-35.6402"/>
<text text-anchor="middle" x="89.5" y="-58.2" font-family="Times,serif" font-size="14.00" fill="#000000">6</text>
</g>
</g>
</svg>